# xmcd
#
# Track frame offsets:
# 150
# 28500
# 46796
# 63920
# 78451
# 92401
# 103604
# 116458
# 140665
# 156161
# 169797
# 183450
# 197694
# 204888
# 217477
# 227744
# 246926
# 259309
#
# Disc length: 3636 seconds
#
#
# Revision: 0
# Processed by: cddbd v1.5.2PL0 Copyright (c) Steve Scherf et al.
# Submitted via: FreeRIP 2.941 
#
DISCID=fa0e3212
DTITLE=Full Metal Paddy - One Naughty Word
DYEAR=2001
DGENRE=crap
TTITLE0=Paula Yates *1959* (Big Microphone)
TTITLE1=You Fucked Up and You're Going to Hell
TTITLE2=Party in My Pants
TTITLE3=Red Zed III
TTITLE4=Elevated Levels of Testosterone
TTITLE5=Temporary Insanity
TTITLE6=SHITHEAD
TTITLE7=Too Little Too Late
TTITLE8=Iowa (ska)
TTITLE9=Life's Worth Livin Again
TTITLE10=Idly Bye
TTITLE11=I Planned It
TTITLE12=All I Want for Christmas is You
TTITLE13=No Thanks for the Flowers
TTITLE14=One Thought to Another (Beauty Queen)
TTITLE15=Done My Duty (Steve and Nancy)
TTITLE16=Walker Cruize
TTITLE17=Iowa (Dance Mix)
EXTD=
EXTT0=
EXTT1=
EXTT2=
EXTT3=
EXTT4=
EXTT5=
EXTT6=
EXTT7=
EXTT8=
EXTT9=
EXTT10=
EXTT11=
EXTT12=
EXTT13=
EXTT14=
EXTT15=
EXTT16=
EXTT17=
PLAYORDER=
